<?xml version="1.0" encoding="UTF-8"?>
<svg id="Layer_1" data-name="Layer 1" xmlns="http://www.w3.org/2000/svg" viewBox="0 0 55.32 56.32">
  <path d="m18,4c7.72,0,14,6.28,14,14s-6.28,14-14,14-14-6.28-14-14,6.28-14,14-14m0-4C8.06,0,0,8.06,0,18s8.06,18,18,18,18-8.06,18-18S27.94,0,18,0h0Z"/>
  <path d="m33.18,33.68c.14,0,.26.05.35.15l17.64,17.64c.19.19.19.51,0,.71-.1.1-.22.15-.35.15s-.26-.05-.35-.15l-17.64-17.64c-.19-.19-.19-.51,0-.71.1-.1.22-.15.35-.15m0-4c-1.15,0-2.3.44-3.18,1.32-1.76,1.76-1.76,4.61,0,6.36l17.64,17.64c.88.88,2.03,1.32,3.18,1.32s2.3-.44,3.18-1.32c1.76-1.76,1.76-4.61,0-6.36l-17.64-17.64c-.88-.88-2.03-1.32-3.18-1.32h0Z"/>
</svg>